<svg id="visual" viewBox="0 0 960 540" width="960" height="540" xmlns="http://www.w3.org/2000/svg" xmlns:xlink="http://www.w3.org/1999/xlink" version="1.1"><rect x="0" y="0" width="960" height="540" fill="#ffffff"></rect><defs><linearGradient id="grad1_0" x1="43.8%" y1="0%" x2="100%" y2="100%"><stop offset="14.444444444444446%" stop-color="#ffffff" stop-opacity="1"></stop><stop offset="85.55555555555554%" stop-color="#ffffff" stop-opacity="1"></stop></linearGradient></defs><defs><linearGradient id="grad2_0" x1="0%" y1="0%" x2="56.3%" y2="100%"><stop offset="14.444444444444446%" stop-color="#ffffff" stop-opacity="1"></stop><stop offset="85.55555555555554%" stop-color="#ffffff" stop-opacity="1"></stop></linearGradient></defs><g transform="translate(960, 0)"><path d="M0 432C-30.8 390.3 -61.7 348.6 -112.2 345.2C-162.7 341.9 -232.9 376.9 -253.9 349.5C-275 322.1 -247 232.3 -255.6 185.7C-264.3 139.2 -309.7 135.9 -345.2 112.2C-380.7 88.4 -406.4 44.2 -432 0L0 0Z" fill="#4896ae"></path></g><g transform="translate(0, 540)"><path d="M0 -432C45.9 -428.6 91.8 -425.2 133.5 -410.9C175.2 -396.5 212.8 -371.2 248 -341.4C283.3 -311.6 316.4 -277.4 326 -236.9C335.7 -196.4 322 -149.6 335.7 -109.1C349.5 -68.6 390.7 -34.3 432 0L0 0Z" fill="#4896ae"></path></g></svg>